<svg xmlns="http://www.w3.org/2000/svg" viewBox="0 0 254 164">
  <style>
    .s0{fill:#d1ccbd;}.s1{fill:#fff;}.s2{fill:#ce0037;}
  </style>
  <defs>
  	<filter xmlns="http://www.w3.org/2000/svg" id="dropshadow" height="120%">
  		<feGaussianBlur in="SourceAlpha" stdDeviation="3"/> 
  		<feOffset dx="5" dy="5" result="offsetblur"/>
  		<feComponentTransfer>
  			<feFuncA type="linear" slope="0.5"/>
  		</feComponentTransfer>
  		<feMerge> 
  			<feMergeNode/>
  			<feMergeNode in="SourceGraphic"/> 
  		</feMerge>
  	</filter>
  </defs>
  <g id="oskar-card" filter=" url(#dropshadow)">
    <path id="bg-beige" fill="#d1ccbd" d="M11.3 153.1S0 153.1 0 141.8V11.3S0 0 11.3 0h218.3s11.3 0 11.3 11.3v130.4s0 11.3-11.3 11.3H11.3v.1z"/>
    <path id="bg-weiss" fill="#fff" d="M12.8 146s-5.7 0-5.7-5.7V12.8s0-5.7 5.7-5.7h215.4s5.7 0 5.7 5.7v127.6s0 5.7-5.7 5.7H12.8v-.1z"/>
    <path id="red-corner" fill="#ce0037" d="M222 125.1s-9-.3-9 8.2v12.8h15.2c5.7 0 5.8-5.8 5.8-5.8v-15.2h-12z"/>
    <path id="claim" fill="#000000" d="M180.5 129.8c.1-1.5 1.2-2.1 2.5-2.1s2.3.6 2.5 2.1h-5zm5 2.3c-.7.3-1.6.5-2.4.5-1.4 0-2.5-.6-2.6-2.1h5.7v-.5c0-2.1-1.5-2.9-3.2-2.9-1.8 0-3.2.9-3.2 3.1s1.4 3.1 3.3 3.1c.9 0 1.9-.2 2.7-.5l-.3-.7zm-6.5.3c-.4.1-.8.2-1.1.2-.8 0-1-.4-1-1.5v-3.3h2.3v-.6h-2.3v-1.5l-.6.1-.1 1.4h-.7v.6h.7v3.3c0 1.6.5 2.1 1.7 2.1.3 0 .8 0 1.3-.2l-.2-.6zm-6.9.7v-2.9c0-1.5 1.1-2.4 2-2.4h.6l.2-.6c-.3-.1-.6-.1-.8-.1-.9 0-1.8.6-2.1 1.7l.1-.5c0-.4-.1-.8-.2-1.1h-.7c.2.5.3 1 .3 1.7v4.2h.6zm-3-2.6c-.1 1.5-1 2.1-2.6 2.1-1.2 0-2-.3-2-1.1 0-.9 1-1 1.8-1h2.8zm1 2.6c-.2-.5-.3-1-.3-1.7V130c0-2.1-1.1-2.9-3-2.9-.9 0-1.9.2-2.7.6l.2.6c.7-.3 1.6-.5 2.4-.5 1.4 0 2.2.6 2.3 2.1h-2.8c-1.1 0-2.5.2-2.5 1.6 0 1.2 1.1 1.8 2.6 1.8 1.4 0 2.5-.5 2.9-1.7l-.1.4c0 .4.1.8.2 1.1h.8zm-6.9 0l-2.6-2.9 2.6-2.9h-.9l-2.4 2.6h-1.7v-5.4l-.7.1v8.5h.7v-2.6h1.7l2.4 2.6h.9zm-12.6-3.3c.1-1.5 1.2-2.1 2.5-2.1s2.3.6 2.5 2.1h-5zm5 2.3c-.7.3-1.6.5-2.4.5-1.4 0-2.5-.6-2.6-2.1h5.7v-.5c0-2.1-1.5-2.9-3.2-2.9-1.8 0-3.2.9-3.2 3.1s1.4 3.1 3.3 3.1c.9 0 1.9-.2 2.7-.5l-.3-.7zm-6.5.3c-.4.1-.8.2-1.1.2-.8 0-1-.4-1-1.5v-3.3h2.3v-.6H147v-1.5l-.6.1-.1 1.4h-.7v.6h.7v3.3c0 1.6.5 2.1 1.7 2.1.3 0 .8 0 1.3-.2l-.2-.6zm-9.7.3c.8.3 1.8.5 2.7.5 1.3 0 2.8-.5 2.8-1.7 0-2.2-4.8-1.2-4.8-2.8 0-.8 1-1 1.9-1 .8 0 1.6.2 2.3.5l.3-.6c-.8-.3-1.7-.6-2.6-.6-1.3 0-2.6.5-2.6 1.7 0 2.2 4.8 1.1 4.8 2.7 0 .7-1 1.1-2 1.1-.8 0-1.8-.2-2.5-.5l-.3.7zm-2.8-6.8c.2 0 .4-.2.4-.4s-.2-.4-.4-.4-.4.2-.4.4.1.4.4.4m-2.4 0c.2 0 .4-.2.4-.4s-.2-.4-.4-.4-.4.2-.4.4.2.4.4.4m3.4 4.6c-.1 1.5-1 2.1-2.6 2.1-1.2 0-2-.3-2-1.1 0-.9 1-1 1.8-1h2.8zm1 2.6c-.2-.5-.3-1-.3-1.7V130c0-2.1-1.1-2.9-3-2.9-.9 0-1.9.2-2.7.6l.2.6c.7-.3 1.6-.5 2.4-.5 1.4 0 2.2.6 2.3 2.1h-2.8c-1.1 0-2.5.2-2.5 1.6 0 1.2 1.1 1.8 2.6 1.8 1.4 0 2.5-.5 2.9-1.7l-.1.4c0 .4.1.8.2 1.1h.8zm-7.7 0v-4H127v.6h3.2v2.3c-.8.4-1.7.6-2.6.6-1.8 0-3.3-.9-3.3-3.1s1.5-3.1 3.3-3.1c1 0 1.9.2 2.8.6l.2-.7c-.9-.4-1.9-.7-3-.7-2.3 0-4.1 1.1-4.1 3.9 0 2.7 1.8 3.8 4 3.8 1 0 1.9-.2 2.7-.6l.1.4h.6zm-14.2 0v-2.9c0-1.5 1.1-2.4 2-2.4h.6l.2-.6c-.3-.1-.6-.1-.8-.1-.9 0-1.8.6-2.1 1.7l.1-.5c0-.4-.1-.8-.2-1.1h-.7c.2.5.3 1 .3 1.7v4.2h.6zm-7.6-3.3c.1-1.5 1.2-2.1 2.5-2.1s2.3.6 2.5 2.1h-5zm5 2.3c-.7.3-1.6.5-2.4.5-1.4 0-2.5-.6-2.6-2.1h5.7v-.5c0-2.1-1.5-2.9-3.2-2.9-1.8 0-3.2.9-3.2 3.1s1.4 3.1 3.3 3.1c.9 0 1.9-.2 2.7-.5l-.3-.7zm-6.3 1v-.6h-4.4l4.4-4.7v-.6h-5.2v.6h4.2l-4.4 4.7v.6h5.4zm-6.7-7.2c.2 0 .4-.2.4-.4s-.2-.4-.4-.4-.4.2-.4.4.2.4.4.4m.4 1.3h-.7v5.9h.7v-5.9zm-7.6 2.6c.1-1.5 1.2-2.1 2.5-2.1s2.3.6 2.5 2.1h-5zm5 2.3c-.7.3-1.6.5-2.4.5-1.4 0-2.5-.6-2.6-2.1h5.7v-.5c0-2.1-1.5-2.9-3.2-2.9-1.8 0-3.2.9-3.2 3.1s1.4 3.1 3.3 3.1c.9 0 1.9-.2 2.7-.5l-.3-.7zm-8.5 1l2.2-5.9h-.7l-1.8 4.9-1.9-4.9h-.6l-1.9 4.9-1.8-4.9h-.7l2.3 5.9h.5l1.9-4.9 1.9 4.9h.6zm-7.9 0v-3.2c0-2-1.1-2.8-2.6-2.8-1.2 0-2.3.5-2.7 1.8 0-.3.1-.6.1-.9v-3.4l-.7.1v8.5h.7v-2.9c0-1.7 1.1-2.4 2.4-2.4 1.2 0 2.1.6 2.1 2.2v3.2h.7v-.2zm-7.3-1c-.7.3-1.4.5-2.2.5-1.4 0-2.6-.7-2.6-2.4s1.2-2.4 2.6-2.4c.8 0 1.5.2 2.2.5l.3-.6c-.7-.3-1.6-.5-2.4-.5-1.8 0-3.3.9-3.3 3.1s1.5 3.1 3.3 3.1c.9 0 1.7-.2 2.4-.5l-.3-.8zm-11.8.6c.8.3 1.8.5 2.7.5 1.3 0 2.8-.5 2.8-1.7 0-2.2-4.8-1.2-4.8-2.8 0-.8 1-1 1.9-1 .8 0 1.6.2 2.3.5l.3-.6c-.8-.3-1.7-.6-2.6-.6-1.3 0-2.6.5-2.6 1.7 0 2.2 4.8 1.1 4.8 2.7 0 .7-1 1.1-2 1.1-.8 0-1.8-.2-2.5-.5l-.3.7zm-1-.3c-.4.1-.8.2-1.1.2-.8 0-1-.4-1-1.5v-3.3h2.3v-.6h-2.3v-1.5l-.6.1-.1 1.4h-.7v.6h.7v3.3c0 1.6.5 2.1 1.7 2.1.3 0 .8 0 1.3-.2l-.2-.6zm-9.7.3c.8.3 1.8.5 2.7.5 1.3 0 2.8-.5 2.8-1.7 0-2.2-4.8-1.2-4.8-2.8 0-.8 1-1 1.9-1 .8 0 1.6.2 2.3.5l.3-.6c-.8-.3-1.7-.6-2.6-.6-1.3 0-2.6.5-2.6 1.7 0 2.2 4.8 1.1 4.8 2.7 0 .7-1 1.1-2 1.1-.8 0-1.8-.2-2.5-.5l-.3.7zm-1.8-3.3c0 2.2-1.4 3.1-3.2 3.1-1.8 0-3.2-.9-3.2-3.1s1.5-3.1 3.2-3.1c1.7 0 3.2.9 3.2 3.1m.8 0c0-2.7-1.8-3.8-4-3.8s-4 1.1-4 3.8c0 2.7 1.8 3.8 4 3.8s4-1.1 4-3.8m-18.2.4c.1-1.5 1.2-2.1 2.5-2.1s2.3.6 2.5 2.1h-5zm5 2.3c-.7.3-1.6.5-2.4.5-1.4 0-2.5-.6-2.6-2.1h5.7v-.5c0-2.1-1.5-2.9-3.2-2.9-1.8 0-3.2.9-3.2 3.1s1.4 3.1 3.3 3.1c.9 0 1.9-.2 2.7-.5l-.3-.7zm-7.3-6.2c.2 0 .4-.2.4-.4s-.2-.4-.4-.4-.4.2-.4.4.2.4.4.4m.3 1.3h-.7v5.9h.7v-5.9zm-8.9 5.2v-5.9h2.8c1.8 0 3.2.9 3.2 3s-1.4 3-3.2 3h-2.8v-.1zm2.8.7c2.2 0 3.9-1.1 3.9-3.7s-1.8-3.7-3.9-3.7h-3.6v7.4h3.6z"/>
    <path id="oskar" fill="#ce0037" d="M185.8 113.4V97.3c0-7.9 6.3-12 11.4-12 1.6 0 2.4.1 3.5.2l1.3-4.2c-1.9-.5-3.9-.6-5.1-.6-5.8 0-10.2 3.5-12.2 8.7l-.1-.1.4-2.3c-.2-2.1-.6-4.1-1.4-5.8h-5.4c1.3 2.7 1.9 5.8 1.9 9.2v23.1h5.7v-.1zm-10.4 0c-1.3-2.7-1.9-5.8-1.9-9.2v-7.7c0-11.5-7-16.3-18.5-16.3-6 0-12 1.2-16.7 3.1l1.9 4.1c4-1.6 9.5-2.5 14.6-2.5 8.1 0 12.5 2.7 13 10h-15.7c-7.2 0-16.1 1.2-16.1 9.2 0 6.9 6.8 10.1 15.6 10.1 8.3 0 14.8-2.8 17.3-9l.1.1-.4 2.3c.2 2.1.6 4.1 1.4 5.8h5.4zm-7.5-13.9c-.8 7.1-5.8 10.1-15.2 10.1-6.8 0-11.1-1.4-11.1-5.2 0-4.4 6.1-4.9 10.6-4.9h15.7zm-32.5 13.9l-16-16.2 16-16.1h-6.9L114.6 95h-8.9V65.8l-5.5.7v46.9h5.5v-14h8.9l13.8 14h7zM94.7 83.3c-5-1.9-10.4-3.1-16.1-3.1-8.4 0-16.5 2.6-16.5 9.5s7.9 8.2 16.2 9.5c6.4.9 12.1 2 12.1 5.4 0 3.5-5.8 4.9-11.5 4.9-5 0-10.9-1-15.2-2.7l-1.9 4.2c5 1.9 11.4 3.1 17.1 3.1 8.4 0 17.1-2.6 17.1-9.5 0-6.8-8.4-8.6-17.4-9.9-5.8-.7-11-1.6-11-5 0-3.6 5.4-4.8 10.9-4.8 4.9 0 9.9 1 14.1 2.7l2.1-4.3zM54.4 97.2c0 8.9-6.5 12.4-14.6 12.4-8 0-14.7-3.5-14.7-12.4 0-8.8 6.6-12.3 14.7-12.3 8 0 14.6 3.5 14.6 12.3m5.6 0c0-12-9-16.9-20.1-16.9-11.2 0-20.2 5-20.2 16.9 0 12 9 17 20.2 17 11.1 0 20.1-5 20.1-17"/>
    <g id="icon-genuss">
      <path id="bg" fill="#8d6e97" d="M128.8 41.1c5.9 0 10.6-4.8 10.6-10.6 0-5.9-4.8-10.6-10.6-10.6-5.9 0-10.6 4.8-10.6 10.6s4.8 10.6 10.6 10.6"/>
      <path id="fg" fill="#fff" d="M128.3 27.9v-2.3c0-.7-.4-1.3-.9-1.6v4.1c0 .2-.2.3-.3.3-.2 0-.3-.2-.3-.3v-4.4h-.3c-.1 0-.3 0-.4.1v4.4c0 .2-.2.3-.3.3-.2 0-.3-.2-.3-.3v-4.1c-.5.3-.8.9-.8 1.6V28c0 .8.5 1.5 1.2 1.8l-.4 6.5c0 .6.5 1.1 1.1 1.1.6 0 1.1-.5 1.1-1.1l-.3-6.5c.4-.4.9-1.1.9-1.9m4.7 3.7l-.1-8c-1.1 0-2 .8-2 1.9l-.4 3.5c0 .8.4 1.5.9 1.9l-.3 5.3c0 .6.5 1.1 1.1 1.1.6 0 1.1-.5 1.1-1.1l-.3-4.6z"/>
    </g>
    <g id="icon-kultur">
      <path id="bg1" fill="#89a84f" d="M104.7 41.1c5.9 0 10.6-4.8 10.6-10.6 0-5.9-4.8-10.6-10.6-10.6-5.9 0-10.6 4.8-10.6 10.6s4.8 10.6 10.6 10.6"/>
      <path id="fg1" fill="#fff" d="M110.1 32.9l-5 1.4v-7.7l5-1.4v7.7zm0 1.5l-5.4 1.5-5.4-1.5v-.8l5.4 1.5 5.4-1.5v.8zm-10.8-9.2l.8.2v5.9l1.5-.8 1.5.8v-5.1l1.2.3v7.7l-5-1.4v-7.6zm1.6.4l1.5.4v4l-.8-.4-.8.4v-4.4h.1zm9.2-1.2l-5.4 1.5-5.4-1.5c-.4 0-.8.3-.8.8V34c0 .7.3 1 .8 1.2l5.4 1.5 5.4-1.5c.6-.2.8-.5.8-1.1v-8.9c0-.4-.3-.8-.8-.8"/>
    </g>
    <g id="icon-familie">
      <path id="bg2" fill="#ce0037" d="M80.6 41.1c5.9 0 10.6-4.8 10.6-10.6 0-5.9-4.8-10.6-10.6-10.6-5.9 0-10.6 4.8-10.6 10.6s4.8 10.6 10.6 10.6"/>
      <path id="fg2" fill="#fff" d="M86.3 25.9c-1.6-1.6-4.1-1.6-5.6 0-1.6-1.6-4.1-1.6-5.6 0-1.6 1.6-1.6 4.2 0 5.8l5.6 5.8 5.6-5.8c1.5-1.6 1.5-4.2 0-5.8zm-.7 5.1l-1.8 1.9-3.2 3.1-3.1-3.2-1.8-1.8c-1.1-1.2-1.2-3.1 0-4.3 1.2-1.2 3.1-1.2 4.2 0l.7.7.7-.7c1.2-1.2 3.1-1.2 4.2 0 1.3 1.1 1.3 3.1.1 4.3zm-2.4-3.7c-.4 0-.7.1-.9.3l.5.7c.1-.1.3-.2.5-.2.5 0 .9.4.9.9 0 .1 0 .3-.1.4l.8.4c.1-.2.2-.5.2-.8-.2-1-1-1.7-1.9-1.7z"/>
    </g>
    <g id="icon-sport">
      <path id="bg3" fill="#ffa300" d="M56.6 41.1c5.9 0 10.6-4.8 10.6-10.6 0-5.9-4.8-10.6-10.6-10.6S46 24.7 46 30.5c-.1 5.8 4.7 10.6 10.6 10.6"/>
      <path id="fg3" fill="#fff" d="M61.2 32.4c-2.9 1.1-5.8-2.4-8.6-1.3v-5.6c2.9-1.2 5.8 2.4 8.6 1.3v5.6zm-9.7-7.3V37h1.1v-4.7c3.2-1.3 6.5 3.3 9.7.6v-7.8c-3.6 2.9-7.2-3-10.8 0"/>
    </g>
    <g id="icon-ausflug">
      <path id="bg4" fill="#b9975b" d="M32.5 41.1c5.9 0 10.6-4.8 10.6-10.6 0-5.9-4.8-10.6-10.6-10.6s-10.6 4.8-10.6 10.6c-.1 5.8 4.7 10.6 10.6 10.6"/>
      <path id="fg4" fill="#fff" d="M33.9 30.5c0-.8-.7-1.5-1.5-1.5s-1.5.7-1.5 1.5.7 1.5 1.5 1.5c.9 0 1.5-.7 1.5-1.5m1.6 0c0 1.7-1.4 3.1-3.1 3.1-1.7 0-3.1-1.4-3.1-3.1 0-1.7 1.4-3.1 3.1-3.1 1.7 0 3.1 1.4 3.1 3.1m1.2 0c0-2.3-1.9-4.3-4.3-4.3-2.3 0-4.3 1.9-4.3 4.3 0 2.3 1.9 4.3 4.3 4.3 2.4-.1 4.3-2 4.3-4.3m1.6 0c0 3.2-2.6 5.8-5.8 5.8-3.2 0-5.8-2.6-5.8-5.8 0-3.2 2.6-5.8 5.8-5.8 3.2 0 5.8 2.6 5.8 5.8m1.2 0c0-3.9-3.1-7-7-7s-7 3.1-7 7 3.1 7 7 7c3.8 0 7-3.2 7-7"/>
    </g>
  </g>
</svg>