<svg xmlns="http://www.w3.org/2000/svg" width="512" height="512"><g fill="#E21F26"><path d="M257.821 1.506h11.961c12.255 2.075 24.099 6.715 34.689 13.214 12.314 9.162 19.674 23.394 25.097 37.43 4.307 12.862 9.553 26.702 6.46 40.406-3.113 9.338-17.09 6.578-18.48-2.408-3.778-18.402-8.516-38.546-23.766-51.055-10.924-8.477-24.901-14.036-38.879-13.292-12.568.959-21.71 11.198-33.691 13.919-9.005.646-15.935-6.441-23.629-9.964-15.113-8.34-33.476-2.545-47.062 6.167-12.627 10.18-17.364 26.604-21.24 41.717-1.918 9.083-10.65 13.997-15.974 20.927-6.617 8.418-14.154 17.266-15.642 28.229.959 8.809 7.498 17.09 4.62 26.193-1.057 5.286-5.599 10.552-11.433 9.984-7.185-.098-11.139-7.361-13.077-13.371-3.817-11.942-8.183-25.195-3.426-37.528 5.227-13.586 14.526-25.293 25.489-34.748 3.759-3.543 8.457-6.871 9.612-12.235 4.366-16.053 9.064-33.084 20.829-45.437 6.225-6.852 15.172-10.101 23.629-13.253 11.237-4.052 23.844-5.755 35.316-1.547 10.943 3.269 20.555 11.805 32.419 11.256 12.725-3.112 23.12-12.352 36.178-14.604z"/><path d="M247.288 115.206c14.408-7.713 30.99-13.958 47.571-10.708 11.08 1.938 19.89 10.141 30.97 11.961 11.178 1.586 20.399-5.99 30.167-9.964 11.433-5.012 24.51-4.346 36.236-.705 11.217 3.504 22.963 8.242 30.069 18.147 8.712 11.687 13.801 25.723 17.129 39.818.842 5.912 6.069 9.397 9.964 13.332 11.746 10.708 21.417 23.942 26.839 38.977v21.221c-2.682 12.235-8.144 24.059-16.757 33.26-13.253 14.35-32.203 20.986-50.546 26.037-.215 37.371.039 74.762-.137 112.153 0 9.416-7.341 16.855-15.172 20.986-18.95 10.278-40.876 13.88-62.234 13.371-16.797.431-33.809-.959-49.685-6.793a468.203 468.203 0 01-.078-20.966c15.328 5.462 31.694 6.871 47.825 7.361 19.146-1.272 39.916-2.388 55.852-14.447-2.584-4.033-6.127-7.517-10.865-8.829-15.172-4.777-31.048-7.968-47.023-7.537-15.798.039-31.068 4.796-45.75 10.238-.196-7.008-.157-14.017 0-21.025 8.986-3.543 18.421-6.049 28.073-6.871 25.489-3.034 51.936-1.018 75.78 8.966.685-35.61-.47-71.258.568-106.868 18.069-3.504 37.058-7.557 51.369-19.948 9.358-8.046 16.288-20.908 13.057-33.437-4.64-14.115-15.661-24.608-25.547-35.159-5.051-5.031-5.716-12.431-7.85-18.891-3.582-12.49-9.103-25.547-20.125-33.241-10.826-6.754-24.197-11.256-36.96-8.124-10.571 2.427-18.519 10.806-28.875 13.664-10.082.255-17.658-7.811-26.526-11.413-13.919-6.793-30.324-1.918-42.716 5.893-8.555 5.305-12.118 15.23-18.813 22.258-7.282 5.246-19.635-2.016-17.599-11.041 4.719-11.884 10.827-24.374 21.789-31.676z"/><path d="M214.106 172.037c18.754-4.953 38.84.979 54.52 11.628 14.78 12.118 20.712 31.459 24.94 49.391 1.096 5.364 6.245 8.163 9.769 11.824 11.237 10.513 22.082 22.807 26.095 37.998 2.839 16.679-.215 34.866-10.708 48.471-12.686 18.265-34.337 27.094-55.206 32.184-.587 37.156.078 74.332-.294 111.488.059 10.924-9.377 18.735-18.284 23.335-14.917 7.165-31.322 11.354-47.864 12.137h-30.892c-14.996-1.86-29.874-5.795-43.362-12.666-8.163-4.307-16.66-11.1-17.208-21.084-.881-37.508.548-75.095-.666-112.584-19.185-4.757-38.703-12.314-52.465-27.074-9.201-10.238-15.191-23.394-16.718-37.097v-13.919c4.307-15.426 14.212-28.719 26.115-39.172 4.326-4.268 10.336-7.791 11.452-14.271 4.894-17.599 10.532-36.804 25.214-48.863 15.093-9.612 33.906-15.759 51.76-11.315 11.883 2.662 21.71 12.02 34.259 12.02 10.926-1.175 19.207-9.475 29.543-12.431m-92.048 27.622c-15.054 6.401-22.807 22.552-26.507 37.587-2.016 6.225-2.036 13.704-7.224 18.402-10.415 10.356-21.417 21.26-25.86 35.688-2.545 11.765 3.406 23.844 12.098 31.596 14.428 13.273 34.063 18.069 52.739 21.886.372 2.956.763 5.932.822 8.946.137 32.125-.294 64.25.215 96.355 9.592-2.682 18.911-6.48 28.856-7.557 27.642-3.954 56.83-2.917 82.71 8.437.626-35.805-.059-71.65.333-107.475 16.894-2.623 33.906-7.165 48.06-17.169 8.359-6.793 16.581-15.818 16.699-27.25 1.468-12.999-7.752-23.413-15.093-33.006-5.188-6.989-14.056-11.668-15.916-20.712-4.111-15.133-9.005-31.577-21.984-41.541-11.1-6.695-24.451-12.098-37.567-8.966-11.119 2.584-19.048 12.059-29.972 14.917-9.925.02-16.992-8.653-25.704-12.353-11.608-6.125-25.449-3.325-36.705 2.215m39.388 261.561c-10.669 2.486-22.219 3.876-31.127 10.826-.039 1.135-.098 3.406-.137 4.522 15.857 10.806 35.805 12.02 54.364 12.96 18.598-1.429 39.212-2.212 54.364-14.526-2.702-3.72-6.323-6.734-10.767-8.124-21.378-6.95-44.439-10.2-66.697-5.658z"/><path d="M183.156 229.572c20.164.039 40.347-.196 60.53.117-.372 8.457 1.429 17.306-1.312 25.489-13.332 27.466-17.384 58.181-21.906 88.055-8.614.294-17.227.215-25.841.137.489-20.594 5.795-40.719 11.746-60.315 2.643-9.318 7.674-17.678 11.805-26.369-11.687-.509-23.374.059-35.042-.45-.293-8.889-.254-17.776.02-26.664zm-39.701 14.584c4.875-3.524 7.38-9.24 9.925-14.487 5.951-.215 11.902-.196 17.834.157 0 37.822.568 75.663-.255 113.465-8.359.215-16.718.137-25.058.117-1.879-24.98-.254-50.116-.881-75.154a358.694 358.694 0 01-16.523-.431c-.157-6.636-.215-13.273.137-19.909 5.033-.684 10.26-1.369 14.821-3.758z"/></g></svg>